<svg xmlns="http://www.w3.org/2000/svg" version="1.1" xmlns:xlink="http://www.w3.org/1999/xlink" xmlns:svgjs="http://svgjs.dev/svgjs" width="1440" height="250" preserveAspectRatio="none" viewBox="0 0 1440 250"><g mask="url(&quot;#SvgjsMask1138&quot;)" fill="none"><rect width="1440" height="250" x="0" y="0" fill="rgba(12, 3, 3, 1)"></rect><path d="M11 250L261 0L402 0L152 250z" fill="url(&quot;#SvgjsLinearGradient1139&quot;)"></path><path d="M243.60000000000002 250L493.6 0L591.1 0L341.1 250z" fill="url(&quot;#SvgjsLinearGradient1139&quot;)"></path><path d="M522.2 250L772.2 0L827.7 0L577.7 250z" fill="url(&quot;#SvgjsLinearGradient1139&quot;)"></path><path d="M746.8000000000001 250L996.8000000000001 0L1263.8000000000002 0L1013.8000000000001 250z" fill="url(&quot;#SvgjsLinearGradient1139&quot;)"></path><path d="M1394 250L1144 0L1075 0L1325 250z" fill="url(&quot;#SvgjsLinearGradient1140&quot;)"></path><path d="M1164.4 250L914.4000000000001 0L602.4000000000001 0L852.4000000000001 250z" fill="url(&quot;#SvgjsLinearGradient1140&quot;)"></path><path d="M932.8 250L682.8 0L556.8 0L806.8 250z" fill="url(&quot;#SvgjsLinearGradient1140&quot;)"></path><path d="M679.1999999999999 250L429.19999999999993 0L364.69999999999993 0L614.6999999999999 250z" fill="url(&quot;#SvgjsLinearGradient1140&quot;)"></path><path d="M1225.9614138347254 250L1440 35.961413834725306L1440 250z" fill="url(&quot;#SvgjsLinearGradient1139&quot;)"></path><path d="M0 250L214.0385861652747 250L 0 35.961413834725306z" fill="url(&quot;#SvgjsLinearGradient1140&quot;)"></path></g><defs><mask id="SvgjsMask1138"><rect width="1440" height="250" fill="#ffffff"></rect></mask><linearGradient x1="0%" y1="100%" x2="100%" y2="0%" id="SvgjsLinearGradient1139"><stop stop-color="rgba(185, 15, 15, 0.2)" offset="0"></stop><stop stop-opacity="0" stop-color="rgba(185, 15, 15, 0.2)" offset="0.66"></stop></linearGradient><linearGradient x1="100%" y1="100%" x2="0%" y2="0%" id="SvgjsLinearGradient1140"><stop stop-color="rgba(185, 15, 15, 0.2)" offset="0"></stop><stop stop-opacity="0" stop-color="rgba(185, 15, 15, 0.2)" offset="0.66"></stop></linearGradient></defs></svg>